HIERARCHY
ROOT Hips
{
  OFFSET 246.921 91.2784 922.987
  CHANNELS 6 Xposition Yposition Zposition Zrotation Xrotation Yrotation
  JOINT Spine
  {
    OFFSET -3.09105e-05 8 0
    CHANNELS 6 Xposition Yposition Zposition Zrotation Xrotation Yrotation
    JOINT Spine1
    {
      OFFSET 5.58286e-05 8 1.59538e-05
      CHANNELS 6 Xposition Yposition Zposition Zrotation Xrotation Yrotation
      JOINT Spine2
      {
        OFFSET -4.46936e-05 8 -3.32782e-05
        CHANNELS 6 Xposition Yposition Zposition Zrotation Xrotation Yrotation
        JOINT Spine3
        {
          OFFSET 0 8 0
          CHANNELS 6 Xposition Yposition Zposition Zrotation Xrotation Yrotation
          JOINT Neck
          {
            OFFSET -0.000138204 17 0.000265835
            CHANNELS 6 Xposition Yposition Zposition Zrotation Xrotation Yrotation
            JOINT Head
            {
              OFFSET -1.79259e-05 10.8 0
              CHANNELS 6 Xposition Yposition Zposition Zrotation Xrotation Yrotation
              End Site
              {
                OFFSET 0 20.25 0
              }
            }
          }
          JOINT LeftShoulder
          {
            OFFSET 4.99981 17.0001 -1.59321e-05
            CHANNELS 6 Xposition Yposition Zposition Zrotation Xrotation Yrotation
            JOINT LeftShoulder2
            {
              OFFSET 6.45 0 0
              CHANNELS 6 Xposition Yposition Zposition Zrotation Xrotation Yrotation
              JOINT LeftArm
              {
                OFFSET 6.45005 6.5826e-05 1.45768e-05
                CHANNELS 6 Xposition Yposition Zposition Zrotation Xrotation Yrotation
                JOINT LeftForeArm
                {
                  OFFSET -2.97151e-05 -32.4 -2.00001
                  CHANNELS 6 Xposition Yposition Zposition Zrotation Xrotation Yrotation
                  JOINT LeftHand
                  {
                    OFFSET 0 -25.65 2.00001
                    CHANNELS 6 Xposition Yposition Zposition Zrotation Xrotation Yrotation
                    JOINT LeftHandThumb1
                    {
                      OFFSET -0.499979 -1.49998 2.65002
                      CHANNELS 6 Xposition Yposition Zposition Zrotation Xrotation Yrotation
                      JOINT LeftHandThumb2
                      {
                        OFFSET 0 -3.80001 3.69998
                        CHANNELS 6 Xposition Yposition Zposition Zrotation Xrotation Yrotation
                        JOINT LeftHandThumb3
                        {
                          OFFSET 0 -3.00002 2.70001
                          CHANNELS 6 Xposition Yposition Zposition Zrotation Xrotation Yrotation
                          End Site
                          {
                            OFFSET 1.5224e-05 -2.3 1.79999
                          }
                        }
                      }
                    }
                    JOINT LeftHandIndex
                    {
                      OFFSET 1.73939e-05 -1.90001 1.60002
                      CHANNELS 6 Xposition Yposition Zposition Zrotation Xrotation Yrotation
                      JOINT LeftHandIndex1
                      {
                        OFFSET 0 -8.30001 1.90001
                        CHANNELS 6 Xposition Yposition Zposition Zrotation Xrotation Yrotation
                        JOINT LeftHandIndex2
                        {
                          OFFSET 0 -4.5 -3.22627e-05
                          CHANNELS 6 Xposition Yposition Zposition Zrotation Xrotation Yrotation
                          JOINT LeftHandIndex3
                          {
                            OFFSET -1.97599e-05 -3.39997 0
                            CHANNELS 6 Xposition Yposition Zposition Zrotation Xrotation Yrotation
                            End Site
                            {
                              OFFSET 0 -2.59998 1.22237e-05
                            }
                          }
                        }
                      }
                    }
                    JOINT LeftHandMiddle
                    {
                      OFFSET -0.249998 -2.2 0.399988
                      CHANNELS 6 Xposition Yposition Zposition Zrotation Xrotation Yrotation
                      JOINT LeftHandMiddle1
                      {
                        OFFSET 0 -8.30002 1
                        CHANNELS 6 Xposition Yposition Zposition Zrotation Xrotation Yrotation
                        JOINT LeftHandMiddle2
                        {
                          OFFSET 0 -4.65001 1.06943e-05
                          CHANNELS 6 Xposition Yposition Zposition Zrotation Xrotation Yrotation
                          JOINT LeftHandMiddle3
                          {
                            OFFSET 0 -3.29997 2.78855e-05
                            CHANNELS 6 Xposition Yposition Zposition Zrotation Xrotation Yrotation
                            End Site
                            {
                              OFFSET -1.02661e-05 -2.70003 -3.60093e-05
                            }
                          }
                        }
                      }
                    }
                    JOINT LeftHandRing
                    {
                      OFFSET -0.499984 -2.15 -0.799971
                      CHANNELS 6 Xposition Yposition Zposition Zrotation Xrotation Yrotation
                      JOINT LeftHandRing1
                      {
                        OFFSET -1.1478e-05 -7.75002 -0.200039
                        CHANNELS 6 Xposition Yposition Zposition Zrotation Xrotation Yrotation
                        JOINT LeftHandRing2
                        {
                          OFFSET 0 -3.79999 2.5097e-05
                          CHANNELS 6 Xposition Yposition Zposition Zrotation Xrotation Yrotation
                          JOINT LeftHandRing3
                          {
                            OFFSET 0 -3.4 0
                            CHANNELS 6 Xposition Yposition Zposition Zrotation Xrotation Yrotation
                            End Site
                            {
                              OFFSET 0 -2.6 0
                            }
                          }
                        }
                      }
                    }
                    JOINT LeftHandPinky
                    {
                      OFFSET -0.749993 -1.75002 -1.85
                      CHANNELS 6 Xposition Yposition Zposition Zrotation Xrotation Yrotation
                      JOINT LeftHandPinky1
                      {
                        OFFSET 0 -7.15 -1
                        CHANNELS 6 Xposition Yposition Zposition Zrotation Xrotation Yrotation
                        JOINT LeftHandPinky2
                        {
                          OFFSET 0 -3 -1.18593e-05
                          CHANNELS 6 Xposition Yposition Zposition Zrotation Xrotation Yrotation
                          JOINT LeftHandPinky3
                          {
                            OFFSET -1.01587e-05 -2.34999 2.04206e-05
                            CHANNELS 6 Xposition Yposition Zposition Zrotation Xrotation Yrotation
                            End Site
                            {
                              OFFSET 0 -2.09999 0
                            }
                          }
                        }
                      }
                    }
                  }
                }
              }
            }
          }
          JOINT RightShoulder
          {
            OFFSET -5.00015 17 0.000552642
            CHANNELS 6 Xposition Yposition Zposition Zrotation Xrotation Yrotation
            JOINT RightShoulder2
            {
              OFFSET -6.45 0 0
              CHANNELS 6 Xposition Yposition Zposition Zrotation Xrotation Yrotation
              JOINT RightArm
              {
                OFFSET -6.44998 -0.000135688 -0.00018298
                CHANNELS 6 Xposition Yposition Zposition Zrotation Xrotation Yrotation
                JOINT RightForeArm
                {
                  OFFSET -2.35282e-05 -32.4 -1.99998
                  CHANNELS 6 Xposition Yposition Zposition Zrotation Xrotation Yrotation
                  JOINT RightHand
                  {
                    OFFSET 2.39025e-05 -25.65 2.00001
                    CHANNELS 6 Xposition Yposition Zposition Zrotation Xrotation Yrotation
                    JOINT RightHandThumb1
                    {
                      OFFSET 0.500011 -1.5 2.65
                      CHANNELS 6 Xposition Yposition Zposition Zrotation Xrotation Yrotation
                      JOINT RightHandThumb2
                      {
                        OFFSET -2.20839e-05 -3.79999 3.70002
                        CHANNELS 6 Xposition Yposition Zposition Zrotation Xrotation Yrotation
                        JOINT RightHandThumb3
                        {
                          OFFSET -2.08214e-05 -3 2.69999
                          CHANNELS 6 Xposition Yposition Zposition Zrotation Xrotation Yrotation
                          End Site
                          {
                            OFFSET 1.67932e-05 -2.3 1.80001
                          }
                        }
                      }
                    }
                    JOINT RightHandIndex
                    {
                      OFFSET 0 -1.90003 1.6
                      CHANNELS 6 Xposition Yposition Zposition Zrotation Xrotation Yrotation
                      JOINT RightHandIndex1
                      {
                        OFFSET 0 -8.29996 1.9
                        CHANNELS 6 Xposition Yposition Zposition Zrotation Xrotation Yrotation
                        JOINT RightHandIndex2
                        {
                          OFFSET -2.88461e-05 -4.50003 0
                          CHANNELS 6 Xposition Yposition Zposition Zrotation Xrotation Yrotation
                          JOINT RightHandIndex3
                          {
                            OFFSET 3.07255e-05 -3.39999 0
                            CHANNELS 6 Xposition Yposition Zposition Zrotation Xrotation Yrotation
                            End Site
                            {
                              OFFSET 0 -2.6 0
                            }
                          }
                        }
                      }
                    }
                    JOINT RightHandMiddle
                    {
                      OFFSET 0.24997 -2.20002 0.399987
                      CHANNELS 6 Xposition Yposition Zposition Zrotation Xrotation Yrotation
                      JOINT RightHandMiddle1
                      {
                        OFFSET 3.38727e-05 -8.3 1.00001
                        CHANNELS 6 Xposition Yposition Zposition Zrotation Xrotation Yrotation
                        JOINT RightHandMiddle2
                        {
                          OFFSET 0 -4.64999 0
                          CHANNELS 6 Xposition Yposition Zposition Zrotation Xrotation Yrotation
                          JOINT RightHandMiddle3
                          {
                            OFFSET 0 -3.30001 0
                            CHANNELS 6 Xposition Yposition Zposition Zrotation Xrotation Yrotation
                            End Site
                            {
                              OFFSET 1.64058e-05 -2.69996 -1.47455e-05
                            }
                          }
                        }
                      }
                    }
                    JOINT RightHandRing
                    {
                      OFFSET 0.499999 -2.15002 -0.799998
                      CHANNELS 6 Xposition Yposition Zposition Zrotation Xrotation Yrotation
                      JOINT RightHandRing1
                      {
                        OFFSET -2.61733e-05 -7.75001 -0.200009
                        CHANNELS 6 Xposition Yposition Zposition Zrotation Xrotation Yrotation
                        JOINT RightHandRing2
                        {
                          OFFSET 4.2294e-05 -3.80001 0
                          CHANNELS 6 Xposition Yposition Zposition Zrotation Xrotation Yrotation
                          JOINT RightHandRing3
                          {
                            OFFSET 1.86286e-05 -3.39999 0
                            CHANNELS 6 Xposition Yposition Zposition Zrotation Xrotation Yrotation
                            End Site
                            {
                              OFFSET 1.30716e-05 -2.59997 0
                            }
                          }
                        }
                      }
                    }
                    JOINT RightHandPinky
                    {
                      OFFSET 0.75 -1.75 -1.85
                      CHANNELS 6 Xposition Yposition Zposition Zrotation Xrotation Yrotation
                      JOINT RightHandPinky1
                      {
                        OFFSET 1.15929e-05 -7.15 -0.999997
                        CHANNELS 6 Xposition Yposition Zposition Zrotation Xrotation Yrotation
                        JOINT RightHandPinky2
                        {
                          OFFSET 0 -2.99999 0
                          CHANNELS 6 Xposition Yposition Zposition Zrotation Xrotation Yrotation
                          JOINT RightHandPinky3
                          {
                            OFFSET 0 -2.34999 0
                            CHANNELS 6 Xposition Yposition Zposition Zrotation Xrotation Yrotation
                            End Site
                            {
                              OFFSET 0 -2.09998 0
                            }
                          }
                        }
                      }
                    }
                  }
                }
              }
            }
          }
        }
      }
    }
  }
  JOINT LeftUpLeg
  {
    OFFSET 7.99999 0 0
    CHANNELS 6 Xposition Yposition Zposition Zrotation Xrotation Yrotation
    JOINT LeftLeg
    {
      OFFSET 0 -45 -0.99997
      CHANNELS 6 Xposition Yposition Zposition Zrotation Xrotation Yrotation
      JOINT LeftFoot
      {
        OFFSET 0 -41 -1.99999
        CHANNELS 6 Xposition Yposition Zposition Zrotation Xrotation Yrotation
        JOINT LeftToeBase
        {
          OFFSET -1.17721e-05 -7.5 12.5
          CHANNELS 6 Xposition Yposition Zposition Zrotation Xrotation Yrotation
          JOINT LeftFootToe
          {
            OFFSET 0 0 4
            CHANNELS 6 Xposition Yposition Zposition Zrotation Xrotation Yrotation
            End Site
            {
              OFFSET 0 0 0
            }
          }
        }
      }
    }
  }
  JOINT RightUpLeg
  {
    OFFSET -7.99999 0 0
    CHANNELS 6 Xposition Yposition Zposition Zrotation Xrotation Yrotation
    JOINT RightLeg
    {
      OFFSET 0 -45 -0.999991
      CHANNELS 6 Xposition Yposition Zposition Zrotation Xrotation Yrotation
      JOINT RightFoot
      {
        OFFSET 1.29074e-05 -41.0001 -2.00001
        CHANNELS 6 Xposition Yposition Zposition Zrotation Xrotation Yrotation
        JOINT RightToeBase
        {
          OFFSET 0 -7.5 12.5
          CHANNELS 6 Xposition Yposition Zposition Zrotation Xrotation Yrotation
          JOINT RightFootToe
          {
            OFFSET 0 0 4
            CHANNELS 6 Xposition Yposition Zposition Zrotation Xrotation Yrotation
            End Site
            {
              OFFSET 0 0 0
            }
          }
        }
      }
    }
  }
}
MOTION
Frames:	3
Frame Time:	0.0111111
258.68 92.8397 905.33 0.250367 2.70975 81.4134 0 8 0 -7.86071 1.26079 14.6939 0 8 0 1.73307 -0.519716 12.2165 1.13687e-13 8 -2.84217e-14 -1.20621 -4.40127 -55.7031 0 8 0 0.849568 -0.307636 6.08896 1.13687e-13 17 -1.13687e-13 -1.25813 4.82674 -7.9297 1.13687e-13 10.8 0 -2.26299 -3.61121 -18.8995 5 17 0 -25.9801 -1.55073 9.33534 6.45 0 0 -1.92231 -0.317758 -5.05959 6.45 5.68434e-14 0 -7.84971 -36.684 16.1496 1.13687e-13 -32.4 -2 13.0871 -72.3249 60.5756 -4.26326e-14 -25.65 2 0.228321 -6.57308 12.4003 -0.5 -1.5 2.65 -11.8397 -10.3796 -17.1341 0 -3.8 3.7 0.0358214 3.93997 0.0710316 7.10543e-15 -3 2.7 -0.427736 18.2463 -0.520009 5.68434e-14 -1.9 1.6 -1.97147e-06 2.8894e-06 -7.44761e-06 0 -8.3 1.9 -2.64527 -13.4683 -0.107437 -2.84217e-14 -4.5 0 0.13304 -0.0077234 -0.00264595 2.84217e-14 -3.4 0 0.121833 -0.00697818 -0.00397844 -0.25 -2.2 0.4 -1.97147e-06 2.8894e-06 -7.44761e-06 -2.84217e-14 -8.3 1 -5.67912 0.598684 0.695109 2.84217e-14 -4.65 0 3.11352e-05 0.000170238 -0.00138525 5.68434e-14 -3.3 -1.13687e-13 8.34905e-06 -0.000651883 -0.00136386 -0.5 -2.15 -0.8 -1.97147e-06 2.8894e-06 -7.44761e-06 5.68434e-14 -7.75 -0.2 -12.3181 18.604 3.51264 -5.68434e-14 -3.8 -1.13687e-13 0.0538957 0.00238574 0.0126076 5.68434e-14 -3.4 0 0.0492631 0.00251814 0.0129925 -0.75 -1.75 -1.85 -1.97147e-06 2.8894e-06 -7.44761e-06 8.52651e-14 -7.15 -1 -18.4948 29.9263 7.18702 0 -3 0 0.000144977 -0.00875147 0.0200375 0 -2.35 0 -5.70416e-05 0.00966682 0.000966706 -5 17 0 -16.6678 10.4003 0.296037 -6.45 0 -1.13687e-13 -1.19025 0.524081 -3.35893 -6.45 -5.68434e-14 1.13687e-13 -137.216 -60.162 -99.4534 -1.42109e-14 -32.4 -2 49.3025 -62.7877 40.4814 0 -25.65 2 -24.2359 -2.25115 6.34632 0.5 -1.5 2.65 15.0556 6.57102 2.98603 5.68434e-14 -3.8 3.7 0.783846 18.7578 -0.247997 -2.4869e-14 -3 2.7 0.0502524 16.1074 -0.0659475 5.68434e-14 -1.9 1.6 4.12027e-06 9.54523e-07 1.18526e-06 -8.52651e-14 -8.3 1.9 22.7465 1.60087 -0.335202 4.26326e-14 -4.5 0 28.1285 -0.09357 0.0195162 -2.84217e-14 -3.4 1.13687e-13 20.9631 -0.0478193 0.0319724 0.25 -2.2 0.4 4.12027e-06 9.54523e-07 1.18526e-06 0 -8.3 1 25.2413 -1.35752 -0.208192 0 -4.65 0 85.4912 -0.00247289 -0.0205314 -5.68434e-14 -3.3 0 76.9997 -0.0432649 -0.030379 0.5 -2.15 -0.8 4.12027e-06 9.54523e-07 1.18526e-06 -2.84217e-14 -7.75 -0.2 34.1867 -3.18059 -0.466807 -4.26326e-14 -3.8 0 84.8177 0.0136006 -0.0514928 -1.13687e-13 -3.4 0 75.5115 -0.107117 -0.0591207 0.75 -1.75 -1.85 4.12027e-06 9.54523e-07 1.18526e-06 -4.26326e-14 -7.15 -1 39.1878 -4.4594 -0.471401 0 -3 0 81.3153 0.0255679 -0.200146 5.68434e-14 -2.35 0 68.6146 -0.328046 -0.183661 8 2.84217e-14 0 -6.6577 -4.86427 3.98803 0 -45 -1 -0.00509962 4.02396 0.264277 1.13687e-13 -41 -2 4.27069 0.377365 22.0106 0 -7.5 12.5 1.01305e-07 0.0817641 2.72137e-06 0 5.55112e-17 4 -5.72479 -3.43685 -4.7325 -8 -2.84217e-14 5.68434e-14 -12.4864 2.15828 -27.8438 -1.13687e-13 -45 -1 0.0150299 6.70325 -0.495992 0 -41 -2 9.67377 -3.08489 -17.6554 -5.68434e-14 -7.5 12.5 1.10066e-09 -1.03973e-07 2.69426e-06 0 0 4 -8.17828 1.68599 14.3308 
258.662 92.8439 905.388 0.230593 2.70006 81.6154 -1.13687e-13 8 0 -7.90742 1.33291 14.669 0 8 -5.68434e-14 1.72607 -0.512885 12.2043 1.13687e-13 8 -2.84217e-14 -1.20889 -4.39923 -55.708 0 8 0 0.847704 -0.307707 6.08325 0 17 1.13687e-13 -1.25021 4.82698 -7.97346 0 10.8 0 -2.25245 -3.68558 -19.0032 5 17 0 -25.972 -1.52438 9.19581 6.45 -2.84217e-14 0 -1.93137 -0.317102 -5.07649 6.45 0 0 -8.73045 -37.1919 14.8451 0 -32.4 -2 13.7714 -72.382 62.7903 -1.42109e-14 -25.65 2 -1.42037 -5.92374 13.0444 -0.5 -1.5 2.65 -12.6149 -10.2977 -17.369 0 -3.8 3.7 0.00459519 3.46427 0.0442821 0 -3 2.7 -0.469268 22.5698 -0.55136 2.84217e-14 -1.9 1.6 -1.97147e-06 2.8894e-06 -7.44761e-06 0 -8.3 1.9 -3.09553 -14.4674 -0.203424 0 -4.5 0 0.0245588 -0.00168216 -0.00113694 0 -3.4 0 0.0225733 -0.0015215 -0.00324232 -0.25 -2.2 0.4 -1.97147e-06 2.8894e-06 -7.44761e-06 -5.68434e-14 -8.3 1 -5.64014 -0.168287 0.667933 0 -4.65 0 9.0104e-06 0.000136797 -0.00101457 5.68434e-14 -3.3 0 7.43608e-06 -0.000484564 -0.000995611 -0.5 -2.15 -0.8 -1.97147e-06 2.8894e-06 -7.44761e-06 0 -7.75 -0.2 -11.4862 18.5891 3.43441 -5.68434e-14 -3.8 0 0.049907 0.00233764 0.00916771 5.68434e-14 -3.4 0 0.0456119 0.00233301 0.00944409 -0.75 -1.75 -1.85 -1.97147e-06 2.8894e-06 -7.44761e-06 8.52651e-14 -7.15 -1 -17.4463 30.3647 7.07336 5.68434e-14 -3 0 0.000144977 -0.00875147 0.0200375 -5.68434e-14 -2.35 -1.13687e-13 -5.70423e-05 0.009708 0.000966706 -5 17 1.13687e-13 -16.8673 10.4088 0.193816 -6.45 0 -1.13687e-13 -1.19496 0.533332 -3.35019 -6.45 2.84217e-14 0 -135.849 -60.5911 -98.252 -2.84217e-14 -32.4 -2 50.3692 -62.5589 40.4091 -2.84217e-14 -25.65 2 -24.5005 -0.762607 4.85524 0.5 -1.5 2.65 15.068 6.60209 2.95363 7.4607e-14 -3.8 3.7 0.789532 18.8106 -0.247769 4.26326e-14 -3 2.7 0.0629517 16.062 -0.0611296 2.84217e-14 -1.9 1.6 4.12027e-06 9.54523e-07 1.18526e-06 -2.84217e-14 -8.3 1.9 22.7461 2.27379 -0.426342 2.84217e-14 -4.5 0 28.7054 -0.17405 0.0321815 0 -3.4 0 21.3092 -0.0898921 0.0570362 0.25 -2.2 0.4 4.12027e-06 9.54523e-07 1.18526e-06 -1.42109e-14 -8.3 1 25.7374 -0.877607 -0.318955 2.84217e-14 -4.65 0 85.381 -0.00218657 -0.0123503 -5.68434e-14 -3.3 1.13687e-13 76.7344 -0.026151 -0.016637 0.5 -2.15 -0.8 4.12027e-06 9.54523e-07 1.18526e-06 -1.42109e-14 -7.75 -0.2 35.5213 -2.82523 -0.631376 -2.13163e-14 -3.8 -1.13687e-13 84.605 0.00655312 -0.0282177 0 -3.4 0 75.0133 -0.0592985 -0.0309187 0.75 -1.75 -1.85 4.12027e-06 9.54523e-07 1.18526e-06 -4.26326e-14 -7.15 -1 40.9 -4.29088 -0.608707 5.68434e-14 -3 0 80.019 0.0178176 -0.22456 0 -2.35 1.13687e-13 66.2698 -0.342007 -0.18728 8 2.84217e-14 0 -6.61004 -4.88563 3.97035 0 -45 -1 -0.00518413 4.0296 0.272053 -1.13687e-13 -41 -2 4.23289 0.387828 21.7875 0 -7.5 12.5 1.01279e-07 0.0823239 2.72137e-06 0 -1.11022e-16 4 -5.73185 -3.49161 -4.73389 -8 0 -5.68434e-14 -12.4958 2.02649 -27.8375 1.13687e-13 -45 -1 0.0158062 7.08524 -0.486614 0 -41 -2 9.64823 -3.29332 -17.2639 -5.68434e-14 -7.5 12.5 1.10066e-09 -9.82656e-08 2.69426e-06 0 -1.77636e-15 4 -8.10947 1.7497 14.3163 
258.652 92.8516 905.449 0.206719 2.67355 81.8432 -1.13687e-13 8 0 -7.93174 1.40542 14.6323 1.13687e-13 8 0 1.72 -0.509715 12.192 1.13687e-13 8 -2.84217e-14 -1.21113 -4.39783 -55.7137 0 8 0 0.845198 -0.307982 6.0763 0 17 0 -1.236 4.82708 -8.01912 0 10.8 -1.13687e-13 -2.23856 -3.74958 -19.1099 5 17 0 -25.9551 -1.49889 9.04978 6.45 0 0 -1.9396 -0.316455 -5.0957 6.45 0 0 -9.58256 -37.5747 13.4958 1.13687e-13 -32.4 -2 14.599 -72.7118 65.0984 -4.26326e-14 -25.65 2 -3.17725 -5.14886 13.7767 -0.5 -1.5 2.65 -13.0452 -10.589 -17.2585 0 -3.8 3.7 -0.0575063 3.4026 0.0132983 1.42109e-14 -3 2.7 -0.462127 26.3436 -0.532267 5.68434e-14 -1.9 1.6 -1.97147e-06 2.8894e-06 -7.44761e-06 -5.68434e-14 -8.3 1.9 -3.40067 -15.1165 -0.280264 0 -4.5 -1.13687e-13 0.000237327 -0.000468626 -0.000871723 0 -3.4 1.13687e-13 0.000372258 -0.000426717 -0.0031247 -0.25 -2.2 0.4 -1.97147e-06 2.8894e-06 -7.44761e-06 0 -8.3 1 -5.93594 -0.706565 0.640072 0 -4.65 -1.13687e-13 0.0682132 0.00304702 -0.0072905 1.13687e-13 -3.3 -1.13687e-13 0.0562606 0.00270959 -0.00604135 -0.5 -2.15 -0.8 -1.97147e-06 2.8894e-06 -7.44761e-06 0 -7.75 -0.2 -12.0591 18.1511 3.57738 -5.68434e-14 -3.8 0 -0.0120283 -0.00587688 0.00604017 1.13687e-13 -3.4 0 -0.023212 -0.00534416 0.0058853 -0.75 -1.75 -1.85 -1.97147e-06 2.8894e-06 -7.44761e-06 5.68434e-14 -7.15 -1 -18.2272 30.0063 7.38298 -5.68434e-14 -3 1.13687e-13 0.000144977 -0.00875147 0.0200375 0 -2.35 -1.13687e-13 -5.70431e-05 0.00975101 0.000966706 -5 17 0 -17.0673 10.414 0.0797558 -6.45 2.84217e-14 0 -1.19537 0.544525 -3.33512 -6.45 0 0 -134.482 -60.9747 -97.0546 2.84217e-14 -32.4 -2 51.3798 -62.2441 40.2651 0 -25.65 2 -24.6421 0.656623 3.32545 0.5 -1.5 2.65 14.9884 6.51969 2.97146 5.68434e-14 -3.8 3.7 0.799413 18.8924 -0.244863 -2.84217e-14 -3 2.7 0.0602604 15.9275 -0.0625015 5.68434e-14 -1.9 1.6 4.12027e-06 9.54523e-07 1.18526e-06 -5.68434e-14 -8.3 1.9 22.5843 2.89488 -0.518689 2.84217e-14 -4.5 -1.13687e-13 29.3393 -0.205812 0.0370162 0 -3.4 0 21.6899 -0.106465 0.0668753 0.25 -2.2 0.4 4.12027e-06 9.54523e-07 1.18526e-06 0 -8.3 1 26.1587 -0.450519 -0.434239 2.84217e-14 -4.65 0 85.3019 -0.00190112 -0.00616409 -1.13687e-13 -3.3 0 76.5451 -0.0131466 -0.00899928 0.5 -2.15 -0.8 4.12027e-06 9.54523e-07 1.18526e-06 -5.68434e-14 -7.75 -0.2 36.8149 -2.51659 -0.79632 0 -3.8 0 84.4109 0.00332767 -0.0137256 0 -3.4 0 74.5666 -0.0292275 -0.0148931 0.75 -1.75 -1.85 4.12027e-06 9.54523e-07 1.18526e-06 0 -7.15 -1 42.5893 -4.19994 -0.729377 2.84217e-14 -3 -1.13687e-13 78.5356 0.0184446 -0.258043 5.68434e-14 -2.35 0 63.866 -0.354951 -0.208672 8 2.84217e-14 0 -6.54353 -4.89915 3.95832 -1.13687e-13 -45 -1 -0.00516122 4.02709 0.279273 0 -41 -2 4.19418 0.39776 21.5418 0 -7.5 12.5 1.01252e-07 0.0828839 2.72137e-06 0 0 4 -5.73584 -3.54941 -4.73533 -8 -2.84217e-14 0 -12.4873 1.896 -27.8305 0 -45 -1 0.0170241 7.49068 -0.47646 0 -41 -2 9.62693 -3.50151 -16.8055 -5.68434e-14 -7.5 12.5 1.10066e-09 -9.24723e-08 2.69426e-06 -1.13687e-13 0 4 -8.03547 1.82675 14.2995 
